# xmcd
#
# Track frame offsets:
#	150
#	14029
#	31175
#	47039
#	58797
#	74752
#	87339
#	103471
#	115891
#	129808
#	142914
#
# Disc length: 2116 seconds
#
# Revision: 1
# Processed by: cddbd v1.5.2PL0 Copyright (c) Steve Scherf et al.
# Submitted via: audiograbber 1.83.01
#
DISCID=9e08420b
DTITLE=Andy Martin - More Andy Martin
DYEAR=1900
DGENRE=
TTITLE0=Undo The Right
TTITLE1=Adios My Angel
TTITLE2=Green Hills
TTITLE3=More
TTITLE4=The Key To Her Heart
TTITLE5=Sho´nuff
TTITLE6=I Langhed Til I Cried
TTITLE7=Wine, Two, Tree
TTITLE8=Lonely Texas Night
TTITLE9=Saving It Up For Saturday Night
TTITLE10=Blue Sky In Carolina
EXTD=
EXTT0=
EXTT1=
EXTT2=
EXTT3=
EXTT4=
EXTT5=
EXTT6=
EXTT7=
EXTT8=
EXTT9=
EXTT10=
PLAYORDER=
